<?xml version="1.0" encoding="UTF-8" standalone="no"?>
<!-- Created with Inkscape (http://www.inkscape.org/) -->

<svg
   xmlns:dc="http://purl.org/dc/elements/1.1/"
   xmlns:cc="http://creativecommons.org/ns#"
   xmlns:rdf="http://www.w3.org/1999/02/22-rdf-syntax-ns#"
   xmlns:svg="http://www.w3.org/2000/svg"
   xmlns="http://www.w3.org/2000/svg"
   xmlns:xlink="http://www.w3.org/1999/xlink"
   xmlns:sodipodi="http://sodipodi.sourceforge.net/DTD/sodipodi-0.dtd"
   xmlns:inkscape="http://www.inkscape.org/namespaces/inkscape"
   width="744.09448"
   height="1052.3622"
   id="svg2"
   version="1.1"
   inkscape:version="0.91pre2+osxmenu r12822"
   viewBox="0 0 744.09448 1052.3622"
   sodipodi:docname="promo_banner.svg">
  <defs
     id="defs4" />
  <sodipodi:namedview
     id="base"
     pagecolor="#ffffff"
     bordercolor="#666666"
     borderopacity="1.0"
     inkscape:pageopacity="0.0"
     inkscape:pageshadow="2"
     inkscape:zoom="0.49497475"
     inkscape:cx="929.62078"
     inkscape:cy="519.12256"
     inkscape:document-units="px"
     inkscape:current-layer="g5722"
     showgrid="false"
     inkscape:window-width="1280"
     inkscape:window-height="751"
     inkscape:window-x="0"
     inkscape:window-y="23"
     inkscape:window-maximized="0" />
  <metadata
     id="metadata7">
    <rdf:RDF>
      <cc:Work
         rdf:about="">
        <dc:format>image/svg+xml</dc:format>
        <dc:type
           rdf:resource="http://purl.org/dc/dcmitype/StillImage" />
        <dc:title></dc:title>
      </cc:Work>
    </rdf:RDF>
  </metadata>
  <g
     inkscape:label="Layer 1"
     inkscape:groupmode="layer"
     id="layer1">
    <g
       id="g5722"
       transform="translate(18.214285,273.27861)">
      <rect
         inkscape:export-ydpi="90"
         inkscape:export-xdpi="90"
         height="500"
         y="62.36219"
         x="-17.714285"
         width="1024"
         id="rect4464"
         style="fill:#206ed2;fill-opacity:1;fill-rule:nonzero;stroke:none;stroke-opacity:1" />
      <g
         style="fill:#ffffff"
         transform="matrix(5.3183666,0,0,5.3183666,181.502,283.68016)"
         id="g4440">
        <g
           style="fill:#ffffff"
           id="g4400">
          <path
             style="fill:#ffffff"
             inkscape:connector-curvature="0"
             d="M 45.961,18.702 C 45.928,18.664 45.9,18.627 45.861,18.59 l -1.717,-1.657 c 1.424,-0.323 2.957,-1.516 2.957,-2.74 0,-1.426 -1.979,-1.932 -3.668,-1.932 -1.766,0 -1.971,1.21 -1.992,2.065 l -4.43,-4.271 C 36.111,9.164 34.404,8.463 33.128,8.463 l -8.628,0 -0.002,0 -8.63,0 c -1.275,0 -2.981,0.701 -3.882,1.592 L 7.557,14.326 C 7.534,13.471 7.329,12.261 5.565,12.261 c -1.691,0 -3.669,0.506 -3.669,1.932 0,1.224 1.534,2.417 2.958,2.74 L 3.137,18.59 C 3.098,18.627 3.071,18.664 3.037,18.702 1.2,20.272 0,23.184 0,25.297 l 0,6.279 c 0,1.524 0.601,2.907 1.572,3.938 l 0,2.435 c 0,1.424 1.192,2.585 2.658,2.585 l 3.214,0 c 1.466,0 2.657,-1.159 2.657,-2.585 l 0,-0.623 14.397,0 0.002,0 14.396,0 0,0.623 c 0,1.426 1.19,2.585 2.658,2.585 l 3.213,0 c 1.467,0 2.657,-1.161 2.657,-2.585 l 0,-2.435 c 0.972,-1.031 1.572,-2.414 1.572,-3.938 l 0,-6.279 c 0.002,-2.113 -1.198,-5.025 -3.035,-6.595 z M 13.613,11.953 c 0.623,-0.519 1.712,-0.913 2.255,-0.913 l 8.63,0 0.002,0 8.63,0 c 0.543,0 1.632,0.394 2.255,0.913 l 5.809,5.63 -16.694,0 -0.002,0 -16.693,0 5.808,-5.63 z M 1.993,24.347 c 0,-1.546 1.21,-2.801 2.704,-2.801 1.493,0 6.372,2.864 6.372,4.41 0,1.546 -4.879,1.188 -6.372,1.188 -1.494,0 -2.704,-1.25 -2.704,-2.797 z m 8.109,10.226 -0.515,0 -0.515,0 -3.055,0.005 C 5.169,34.314 4.571,34.006 4.148,33.675 3.934,33.508 3.77,33.334 3.642,33.161 3.513,32.986 3.419,32.814 3.358,32.642 2.978,31.568 3.763,30.581 3.763,30.581 l 5.214,0 3.476,3.99 -2.351,0.002 0,0 z m 21.894,0.002 -7.496,0 -0.002,0 -7.496,0 c -1.563,0 -2.832,-1.269 -2.832,-2.831 l 10.328,0 0.002,0 10.328,0 c 0,1.564 -1.269,2.831 -2.832,2.831 z m 0.658,-4.763 -8.154,0 -0.002,0 -8.154,0 c -1.7,0 -3.08,-2.096 -3.08,-4.681 l 11.234,0 0.002,0 11.234,0 c 0,2.586 -1.38,4.681 -3.08,4.681 z m 12.987,2.832 c -0.062,0.172 -0.156,0.344 -0.285,0.518 -0.127,0.173 -0.291,0.347 -0.506,0.514 -0.422,0.331 -1.021,0.641 -1.869,0.903 l -3.055,-0.005 -0.515,0 -0.515,0 -2.353,0 3.478,-3.99 5.213,0 c 0,-0.001 0.786,0.984 0.407,2.06 z m -1.34,-5.5 c -1.492,0 -6.371,0.356 -6.371,-1.188 0,-1.544 4.879,-4.41 6.371,-4.41 1.494,0 2.704,1.255 2.704,2.801 0,1.545 -1.21,2.797 -2.704,2.797 z"
             id="path4402" />
        </g>
        <g
           style="fill:#ffffff"
           id="g4404" />
        <g
           style="fill:#ffffff"
           id="g4406" />
        <g
           style="fill:#ffffff"
           id="g4408" />
        <g
           style="fill:#ffffff"
           id="g4410" />
        <g
           style="fill:#ffffff"
           id="g4412" />
        <g
           style="fill:#ffffff"
           id="g4414" />
        <g
           style="fill:#ffffff"
           id="g4416" />
        <g
           style="fill:#ffffff"
           id="g4418" />
        <g
           style="fill:#ffffff"
           id="g4420" />
        <g
           style="fill:#ffffff"
           id="g4422" />
        <g
           style="fill:#ffffff"
           id="g4424" />
        <g
           style="fill:#ffffff"
           id="g4426" />
        <g
           style="fill:#ffffff"
           id="g4428" />
        <g
           style="fill:#ffffff"
           id="g4430" />
        <g
           style="fill:#ffffff"
           id="g4432" />
      </g>
      <g
         style="fill:#ffffff"
         transform="matrix(0.22689076,0,0,0.22689076,457.28572,223.07647)"
         id="g5340">
        <g
           style="fill:#ffffff"
           id="g5299">
          <g
             style="fill:#ffffff"
             id="bluetooth-audio">
            <path
               style="fill:#ffffff"
               inkscape:connector-curvature="0"
               d="m 253.17407,620.18518 44.16852,44.16852 c 5.76111,-13.44335 7.68148,-28.80556 7.68148,-44.16852 0,-15.36296 -3.84149,-30.72593 -7.68148,-44.16852 l -44.16852,44.16852 z M 354.9537,518.40555 331.90926,543.37036 c 11.52222,23.04445 19.2037,49.92963 19.2037,76.81482 0,26.88518 -7.68148,53.77037 -19.2037,76.81481 l 23.04444,23.04445 c 19.20371,-28.80556 28.80556,-65.29184 28.80556,-101.77888 0,-36.48704 -9.60185,-71.05446 -28.80556,-99.86001 z m -72.97407,19.2037 -109.46111,-109.46111 -19.20371,0 0,145.94815 -88.337033,-88.33704 -26.885185,26.88519 107.540738,107.54074 -107.540738,107.54074 26.885185,26.88518 88.337033,-88.33703 0,145.94815 19.20371,0 109.46111,-109.46112 -82.57593,-82.57592 82.57593,-82.57593 z m -90.25741,-36.48703 36.48704,36.48703 -36.48704,36.48704 0,-72.97407 z m 36.48704,201.63888 -36.48704,36.48704 0,-72.97407 36.48704,36.48703 z"
               id="path5302" />
          </g>
        </g>
        <g
           style="fill:#ffffff"
           id="g5304" />
        <g
           style="fill:#ffffff"
           id="g5306" />
        <g
           style="fill:#ffffff"
           id="g5308" />
        <g
           style="fill:#ffffff"
           id="g5310" />
        <g
           style="fill:#ffffff"
           id="g5312" />
        <g
           style="fill:#ffffff"
           id="g5314" />
        <g
           style="fill:#ffffff"
           id="g5316" />
        <g
           style="fill:#ffffff"
           id="g5318" />
        <g
           style="fill:#ffffff"
           id="g5320" />
        <g
           style="fill:#ffffff"
           id="g5322" />
        <g
           style="fill:#ffffff"
           id="g5324" />
        <g
           style="fill:#ffffff"
           id="g5326" />
        <g
           style="fill:#ffffff"
           id="g5328" />
        <g
           style="fill:#ffffff"
           id="g5330" />
        <g
           style="fill:#ffffff"
           id="g5332" />
      </g>
      <g
         id="g5448"
         style="fill:#ffffff"
         transform="matrix(1.3807468,0,0,1.3807468,470.15687,39.484813)">
        <path
           id="path5450"
           d="m 90.948,151.822 144.843,360.754 c 6.235,15.539 23.868,23.084 39.407,16.83 l 189.118,-75.927 c 15.539,-6.234 23.074,-23.887 16.84,-39.416 L 336.303,53.299 C 330.069,37.76 312.416,30.225 296.877,36.459 L 107.759,112.395 C 92.23,118.64 84.714,136.283 90.948,151.822 Z M 362.399,474.46 c -9.792,3.939 -20.904,-0.794 -24.834,-10.586 -3.921,-9.772 0.822,-20.884 10.614,-24.814 9.764,-3.921 20.885,0.812 24.805,10.596 3.921,9.791 -0.822,20.883 -10.585,24.804 z M 143.973,151.755 297.939,89.943 c 4.274,-1.722 9.132,0.344 10.863,4.628 L 420.31,372.294 c 1.722,4.274 -0.363,9.142 -4.638,10.854 L 261.716,444.96 c -4.284,1.711 -9.142,-0.363 -10.854,-4.638 L 139.363,162.599 c -1.73,-4.275 0.335,-9.133 4.61,-10.844 z"
           inkscape:connector-curvature="0"
           style="fill:#ffffff" />
        <path
           id="path5452"
           d="m 127.334,82.35 c -0.105,-1.014 -0.325,-1.989 -0.708,-2.936 -1.721,-4.274 -6.139,-6.942 -10.738,-6.512 -44.6,4.341 -77.38,44.122 -73.058,88.75 0.545,5.604 5.852,9.955 11.465,9.419 2.792,-0.268 5.317,-1.616 7.086,-3.768 1.797,-2.18 2.61,-4.915 2.333,-7.688 -1.549,-15.979 3.232,-31.681 13.464,-44.112 10.261,-12.46 24.71,-20.177 40.708,-21.707 5.747,-0.554 9.983,-5.68 9.448,-11.446 z"
           inkscape:connector-curvature="0"
           style="fill:#ffffff" />
        <path
           id="path5454"
           d="m 111.718,52.601 c 5.737,-0.564 9.974,-5.689 9.41,-11.437 -0.086,-1.004 -0.316,-1.979 -0.698,-2.917 -1.712,-4.284 -6.12,-6.952 -10.739,-6.512 -32.235,3.127 -61.334,18.637 -81.97,43.72 -20.617,25.073 -30.285,56.62 -27.138,88.883 0.583,5.584 5.871,9.926 11.427,9.4 2.792,-0.268 5.316,-1.597 7.085,-3.758 1.788,-2.171 2.63,-4.887 2.353,-7.688 C 16.112,107.155 56.59,57.956 111.718,52.601 Z"
           inkscape:connector-curvature="0"
           style="fill:#ffffff" />
        <path
           id="path5456"
           d="m 450.174,487.81 c 0.238,0.994 0.611,1.922 1.128,2.802 2.314,3.978 7.076,5.977 11.57,4.886 43.51,-10.729 70.208,-54.821 59.488,-98.359 -1.348,-5.46 -7.22,-8.998 -12.708,-7.659 -2.716,0.669 -5.021,2.371 -6.465,4.752 -1.463,2.42 -1.864,5.24 -1.204,7.956 3.834,15.587 1.386,31.805 -6.972,45.594 -8.348,13.799 -21.544,23.524 -37.141,27.349 -5.612,1.375 -9.055,7.065 -7.696,12.679 z"
           inkscape:connector-curvature="0"
           style="fill:#ffffff" />
        <path
           id="path5458"
           d="m 551.125,380.757 c -2.726,0.67 -5.011,2.353 -6.493,4.743 -1.444,2.41 -1.894,5.221 -1.224,7.956 13.263,53.779 -19.719,108.295 -73.488,121.529 -5.604,1.396 -9.046,7.077 -7.679,12.699 0.22,0.985 0.593,1.903 1.1,2.783 2.324,3.978 7.086,5.985 11.59,4.886 31.432,-7.745 57.996,-27.291 74.808,-55.08 16.792,-27.778 21.793,-60.387 14.037,-91.866 -1.368,-5.431 -7.229,-8.969 -12.651,-7.65 z"
           inkscape:connector-curvature="0"
           style="fill:#ffffff" />
      </g>
      <g
         id="g5460"
         style="fill:#ffffff"
         transform="matrix(1.3807468,0,0,1.3807468,470.15687,39.484813)" />
      <g
         id="g5462"
         style="fill:#ffffff"
         transform="matrix(1.3807468,0,0,1.3807468,470.15687,39.484813)" />
      <g
         id="g5464"
         style="fill:#ffffff"
         transform="matrix(1.3807468,0,0,1.3807468,470.15687,39.484813)" />
      <g
         id="g5466"
         style="fill:#ffffff"
         transform="matrix(1.3807468,0,0,1.3807468,470.15687,39.484813)" />
      <g
         id="g5468"
         style="fill:#ffffff"
         transform="matrix(1.3807468,0,0,1.3807468,470.15687,39.484813)" />
      <g
         id="g5470"
         style="fill:#ffffff"
         transform="matrix(1.3807468,0,0,1.3807468,470.15687,39.484813)" />
      <g
         id="g5472"
         style="fill:#ffffff"
         transform="matrix(1.3807468,0,0,1.3807468,470.15687,39.484813)" />
      <g
         id="g5474"
         style="fill:#ffffff"
         transform="matrix(1.3807468,0,0,1.3807468,470.15687,39.484813)" />
      <g
         id="g5476"
         style="fill:#ffffff"
         transform="matrix(1.3807468,0,0,1.3807468,470.15687,39.484813)" />
      <g
         id="g5478"
         style="fill:#ffffff"
         transform="matrix(1.3807468,0,0,1.3807468,470.15687,39.484813)" />
      <g
         id="g5480"
         style="fill:#ffffff"
         transform="matrix(1.3807468,0,0,1.3807468,470.15687,39.484813)" />
      <g
         id="g5482"
         style="fill:#ffffff"
         transform="matrix(1.3807468,0,0,1.3807468,470.15687,39.484813)" />
      <g
         id="g5484"
         style="fill:#ffffff"
         transform="matrix(1.3807468,0,0,1.3807468,470.15687,39.484813)" />
      <g
         id="g5486"
         style="fill:#ffffff"
         transform="matrix(1.3807468,0,0,1.3807468,470.15687,39.484813)" />
      <g
         id="g5488"
         style="fill:#ffffff"
         transform="matrix(1.3807468,0,0,1.3807468,470.15687,39.484813)" />
      <text
         transform="matrix(0.91209839,-0.40997138,0.40997138,0.91209839,0,0)"
         sodipodi:linespacing="125%"
         id="text5519"
         y="591.70703"
         x="616.8432"
         style="font-style:normal;font-weight:normal;font-size:48.64089584px;line-height:125%;font-family:sans-serif;letter-spacing:0px;word-spacing:0px;fill:#ffffff;fill-opacity:1;stroke:none;stroke-width:1px;stroke-linecap:butt;stroke-linejoin:miter;stroke-opacity:1"
         xml:space="preserve"><tspan
           id="tspan5527"
           style="font-style:normal;font-variant:normal;font-weight:normal;font-stretch:normal;font-size:48.6412468px;line-height:125%;font-family:'Russo One';-inkscape-font-specification:'Russo One, Normal';text-align:center;writing-mode:lr-tb;text-anchor:middle;fill:#ffffff"
           y="591.70703"
           x="616.8432"
           sodipodi:role="line"><tspan
             style="font-style:normal;font-variant:normal;font-weight:normal;font-stretch:normal;font-size:48.6412468px;line-height:125%;font-family:'Russo One';-inkscape-font-specification:'Russo One, Normal';text-align:center;writing-mode:lr-tb;text-anchor:middle;fill:#ffffff"
             id="tspan5612"
             dx="0 0 0 0 0 0">TakeMe!</tspan></tspan><tspan
           dx="0 0 0 0 -2.0203052"
           id="tspan5614"
           style="font-style:normal;font-variant:normal;font-weight:normal;font-stretch:normal;font-size:27.5px;line-height:125%;font-family:sans-serif;-inkscape-font-specification:'sans-serif, Normal';text-align:center;writing-mode:lr-tb;text-anchor:middle;fill:#ffffff"
           y="632.25415"
           x="616.8432"
           sodipodi:role="line">With You.</tspan></text>
      <text
         sodipodi:linespacing="125%"
         id="text5616"
         y="211.7122"
         x="28.751289"
         style="font-style:normal;font-weight:normal;font-size:40px;line-height:125%;font-family:sans-serif;letter-spacing:0px;word-spacing:0px;fill:#ffffff;fill-opacity:1;stroke:#000000;stroke-width:3;stroke-linecap:butt;stroke-linejoin:miter;stroke-opacity:1;stroke-miterlimit:4;stroke-dasharray:none"
         xml:space="preserve"><tspan
           style="font-style:normal;font-variant:normal;font-weight:normal;font-stretch:normal;font-size:90px;line-height:125%;font-family:'Russo One';-inkscape-font-specification:'Russo One, Normal';text-align:start;writing-mode:lr-tb;text-anchor:start;fill:#ffffff;stroke:#000000;stroke-opacity:1;stroke-width:3;stroke-miterlimit:4;stroke-dasharray:none"
           y="211.7122"
           x="28.751289"
           id="tspan5618"
           sodipodi:role="line">TakeMe!</tspan></text>
      <g
         transform="matrix(0.3284862,-0.15620938,0.15620938,0.3284862,764.80221,436.91105)"
         id="g5696">
        <symbol
           id="hand"
           viewBox="-364.275 -463.175 728.602 926.3">
          <g
             id="Layer_3_1_">
            <path
               style="clip-rule:evenodd;fill:#ffffff;fill-rule:evenodd"
               inkscape:connector-curvature="0"
               d="m 209.5,105.85 c 0,-0.4 0,-0.817 0,-1.25 l -0.15,-68.4 0.15,-15.55 -0.15,15.55 0.15,68.4 c 0,0.433 0,0.85 0,1.25 l 0,32.8 8.4,-1 c 9.167,-0.667 22.7,-1 40.6,-1 30.833,0 52.25,-13.667 64.25,-41 3.767,-8.533 6.35,-17.933 7.75,-28.2 0.7,-5.133 1.033,-9.4 1,-12.8 l -0.25,-51 c -6.167,-121.433 -18.083,-214.5 -35.75,-279.2 -17.633,-64.7 -33.3,-115.967 -47,-153.8 l -364,-1 c -36.2,172.967 -108.183,307.633 -215.95,404 24.7,114.733 82.35,116.05 172.95,3.95 l 0,373.05 c 0.1,3 0.417,6.55 0.95,10.649 1.3,10.267 3.683,19.667 7.15,28.2 10.367,25.533 28.333,39.134 53.9,40.8 25.6,-1.666 43.583,-15.267 53.95,-40.8 3.466,-8.533 5.85,-17.934 7.15,-28.2 0.533,-4.1 0.833,-7.649 0.9,-10.649 l 0,-125.1 0,-117 0,117 8.4,0 c 9.167,-0.666 22.7,-1 40.6,-1 30.833,0 52.25,-13.666 64.25,-41 3.767,-8.533 6.35,-17.933 7.75,-28.2 0.567,-4.1 0.9,-7.65 1,-10.65 l 0,-75 0,75 0,42 8.4,0 c 9.167,-0.667 22.7,-1 40.6,-1 30.833,0 52.25,-13.667 64.25,-41 3.767,-8.534 6.35,-17.934 7.75,-28.2 0.567,-4.1 0.9,-7.65 1,-10.65 z m -0.45,-94.15 0.3,24.5 -0.3,-24.5 z"
               id="path5684" />
            <path
               style="clip-rule:evenodd;fill:none;fill-rule:evenodd;stroke:#000000;stroke-width:65.65000153;stroke-linecap:round;stroke-linejoin:round;stroke-miterlimit:3"
               inkscape:connector-curvature="0"
               stroke-miterlimit="3"
               d="m 209.5,105.85 c -0.1,3 -0.433,6.55 -1,10.65 -1.4,10.267 -3.983,19.667 -7.75,28.2 -12,27.333 -33.417,41 -64.25,41 -17.9,0 -31.433,0.333 -40.6,1 l -8.4,0 0,-42 0,-75 m 0,75 c -0.1,3 -0.433,6.55 -1,10.65 -1.4,10.267 -3.983,19.667 -7.75,28.2 -12,27.334 -33.417,41 -64.25,41 -17.9,0 -31.433,0.334 -40.6,1 l -8.4,0 0,-117 m 0,117 0,125.1 c -0.067,3 -0.367,6.55 -0.9,10.649 -1.3,10.267 -3.684,19.667 -7.15,28.2 -10.367,25.533 -28.35,39.134 -53.95,40.8 -25.567,-1.666 -43.533,-15.267 -53.9,-40.8 -3.467,-8.533 -5.85,-17.934 -7.15,-28.2 -0.534,-4.1 -0.85,-7.649 -0.95,-10.649 l 0,-373.05 c -90.6,112.1 -148.25,110.783 -172.95,-3.95 107.767,-96.367 179.75,-231.033 215.95,-404 l 364,1 c 13.7,37.833 29.367,89.1 47,153.8 17.667,64.7 29.583,157.767 35.75,279.2 l 0.25,51 c 0.033,3.4 -0.3,7.667 -1,12.8 -1.4,10.267 -3.983,19.667 -7.75,28.2 -12,27.333 -33.417,41 -64.25,41 -17.9,0 -31.433,0.333 -40.6,1 l -8.4,1 0,-32.8 c 0,-0.4 0,-0.817 0,-1.25 l -0.15,-68.4 0.15,-15.55 m -0.45,-8.95 0.3,24.5"
               id="path5686" />
          </g>
        </symbol>
        <use
           style="overflow:visible"
           xlink:href="#hand"
           width="728.60199"
           height="926.29999"
           x="-364.27499"
           y="-463.17499"
           transform="matrix(0.353,0,0,-0.353,256.5,196.6499)"
           overflow="visible"
           id="use5688" />
      </g>
    </g>
  </g>
</svg>
